<?xml version="1.0" encoding="utf-8"?>
<!-- Generator: Adobe Illustrator 20.1.0, SVG Export Plug-In . SVG Version: 6.00 Build 0)  -->
<svg version="1.1" id="Layer_1" xmlns="http://www.w3.org/2000/svg" xmlns:xlink="http://www.w3.org/1999/xlink" x="0px" y="0px"
	 viewBox="0 0 512 512" style="enable-background:new 0 0 512 512;" xml:space="preserve">
<style type="text/css">
	.st0{fill:none;stroke:#000000;stroke-width:18;stroke-miterlimit:10;}
</style>
<g>
	<g>
		<path d="M211.7,95.7c3.2-3.2,3.2-8.5,0-11.8s-8.5-3.2-11.8,0c-30.9,30.9-30.9,81.2,0,112c1.6,1.6,3.7,2.4,5.9,2.4
			c2.1,0,4.3-0.8,5.9-2.4c3.2-3.2,3.2-8.5,0-11.8C187.3,159.8,187.3,120.1,211.7,95.7z"/>
	</g>
</g>
<g>
	<g>
		<path d="M312,83.9c-3.2-3.2-8.5-3.2-11.8,0c-3.2,3.2-3.2,8.5,0,11.8c24.4,24.4,24.4,64.1,0,88.5c-3.2,3.2-3.2,8.5,0,11.8
			c1.6,1.6,3.8,2.4,5.9,2.4s4.3-0.8,5.9-2.4C342.9,165.1,342.9,114.8,312,83.9z"/>
	</g>
</g>
<g>
	<g>
		<path d="M379,90.7c-1.7-4.3-6.5-6.3-10.8-4.6c-4.3,1.7-6.3,6.5-4.6,10.8c17.2,43.1,7.2,92.1-25.6,124.9c-3.2,3.2-3.2,8.5,0,11.8
			c1.6,1.6,3.8,2.4,5.9,2.4s4.3-0.8,5.9-2.4C387.1,196.1,398.7,140,379,90.7z"/>
	</g>
</g>
<g>
	<g>
		<path d="M130.2,14.2c3.2-3.2,3.2-8.5,0-11.8c-3.2-3.2-8.5-3.2-11.8,0c-75.8,75.8-75.8,199.2,0,275c1.6,1.6,3.8,2.4,5.9,2.4
			s4.3-0.8,5.9-2.4c3.2-3.2,3.2-8.5,0-11.8C60.9,196.4,60.9,83.5,130.2,14.2z"/>
	</g>
</g>
<g>
	<g>
		<path d="M393.5,2.4c-3.2-3.2-8.5-3.2-11.8,0c-3.2,3.2-3.2,8.5,0,11.8c69.3,69.3,69.3,182.2,0,251.5c-3.2,3.2-3.2,8.5,0,11.8
			c1.6,1.6,3.8,2.4,5.9,2.4s4.3-0.8,5.9-2.4C469.3,201.6,469.3,78.3,393.5,2.4z"/>
	</g>
</g>
<g>
	<g>
		<path d="M174.1,46.3c-3.2-3.2-8.5-3.2-11.8,0c-37.5,37.5-49,93.6-29.3,142.9c1.3,3.3,4.4,5.2,7.7,5.2c1,0,2.1-0.2,3.1-0.6
			c4.3-1.7,6.3-6.5,4.6-10.8c-17.2-43.1-7.2-92.1,25.6-124.9C177.4,54.8,177.4,49.6,174.1,46.3z"/>
	</g>
</g>
<g>
	<g>
		<path d="M370.4,501.4l-96.9-331.2c10.4-6,17.5-17.3,17.5-30.2c0-2-0.2-4-0.5-6c-0.8-4.5-5.1-7.6-9.6-6.8c-4.5,0.8-7.6,5.1-6.8,9.6
			c0.2,1,0.3,2.1,0.3,3.1c0,10.1-8.2,18.3-18.3,18.3s-18.3-8.2-18.3-18.3s8.2-18.3,18.3-18.3c0.9,0,1.8,0.1,2.7,0.2
			c4.5,0.7,8.8-2.5,9.4-7c0.7-4.5-2.5-8.8-7-9.4c-1.7-0.2-3.4-0.4-5.1-0.4c-19.2,0-34.9,15.7-34.9,34.9c0,12.9,7,24.2,17.5,30.2
			l-96.9,331.2c-1,3.4,0.3,7.1,3.2,9.1c1.4,1,3.1,1.5,4.8,1.5c1.7,0,3.5-0.5,4.9-1.6L256,435.5l101.4,74.8c1.5,1.1,3.2,1.6,4.9,1.6
			c1.7,0,3.3-0.5,4.8-1.5C370.1,508.5,371.4,504.8,370.4,501.4z M254.5,174.8c0.5,0,1,0,1.5,0c0.5,0,1,0,1.5,0l27.7,94.6L256,290.9
			l-29.1-21.5L254.5,174.8z M221.9,286.4l20.1,14.8l-31.2,23L221.9,286.4z M164.5,482.4l27.5-94l50,36.9L164.5,482.4z M197,371.4
			l6.1-20.9l57.4-42.3c0.1-0.1,0.3-0.2,0.4-0.3l29.2-21.5l11.1,37.8l-13.7-10.1c-3.7-2.7-8.9-1.9-11.6,1.8s-1.9,8.9,1.8,11.6
			l31.2,23l6.1,20.9l-59,43.5L197,371.4z M270,425.2l50-36.9l27.5,94L270,425.2z"/>
	</g>
</g>
<rect x="210.2" y="299" transform="matrix(0.8019 0.5974 -0.5974 0.8019 237.6081 -99.598)" width="117.6" height="19"/>
<circle class="st0" cx="255.5" cy="140.7" r="28.7"/>
<g>
	<g>
		<path d="M329.4,34c-3.8-2.5-9-1.5-11.5,2.4c-2.5,3.8-1.5,9,2.4,11.5c38.8,25.5,58.5,71.5,50.4,117.2c-0.8,4.5,2.2,8.8,6.7,9.6
			c2.3,0.4,4.5-0.1,6.2-1.4c1.7-1.2,3-3.1,3.4-5.4C396.3,115.7,373.7,63.1,329.4,34z"/>
	</g>
</g>
<g>
	<g>
		<path d="M138.6,96c-4.4-1.2-9,1.4-10.2,5.8c-14.1,51.1,3.5,105.6,44.9,138.7c2.7,2.2,6.4,2.4,9.3,0.7c0.9-0.5,1.7-1.2,2.4-2
			c2.9-3.6,2.3-8.8-1.3-11.7c-36.2-29-51.7-76.6-39.3-121.3C145.6,101.8,143,97.3,138.6,96z"/>
	</g>
</g>
</svg>
