<?xml version="1.0" encoding="utf-8"?>
<!-- Generator: Adobe Illustrator 20.1.0, SVG Export Plug-In . SVG Version: 6.00 Build 0)  -->
<svg version="1.1" id="Layer_1" xmlns="http://www.w3.org/2000/svg" xmlns:xlink="http://www.w3.org/1999/xlink" x="0px" y="0px"
	 viewBox="0 0 595.3 841.9" style="enable-background:new 0 0 595.3 841.9;" xml:space="preserve">
<style type="text/css">
	.st0{fill:#F5F4F5;}
	.st1{fill:#D3D3D3;}
</style>
<ellipse class="st0" cx="289.3" cy="198.2" rx="163" ry="160.7"/>
<g>
	<rect x="269.6" y="83.3" class="st1" width="10" height="196"/>
	
		<rect x="290.7" y="106.2" transform="matrix(0.9977 6.705537e-02 -6.705537e-02 0.9977 13.6167 -19.3895)" class="st1" width="10" height="173.9"/>
	
		<rect x="312.1" y="124.8" transform="matrix(0.9898 0.1422 -0.1422 0.9898 32.0863 -43.0164)" class="st1" width="10" height="156.6"/>
	
		<rect x="329.2" y="137.7" transform="matrix(0.9816 0.1911 -0.1911 0.9816 46.2309 -60.0138)" class="st1" width="10" height="143.9"/>
	
		<rect x="248.6" y="105.7" transform="matrix(-0.9977 6.705537e-02 -6.705537e-02 -0.9977 519.5602 367.827)" class="st1" width="10" height="173.9"/>
	
		<rect x="227.2" y="124.2" transform="matrix(-0.9898 0.1422 -0.1422 -0.9898 490.7244 370.0315)" class="st1" width="10" height="156.6"/>
	
		<rect x="210.1" y="137.2" transform="matrix(-0.9816 0.1911 -0.1911 -0.9816 466.0992 373.2892)" class="st1" width="10" height="143.9"/>
	<rect x="194.3" y="244.7" class="st1" width="162.4" height="12.7"/>
</g>
<path d="M180.9,190c-1.8,7.6-8.5,13.7-17.5,13.7c-10.1,0-17.8-7.9-17.8-17.8c0-9.8,7.6-17.7,17.6-17.7c8.8,0,16,5.8,17.6,14h-10.1
	c-1.1-2.3-3.1-4.7-7.2-4.7c-4.7-0.2-7.9,3.7-7.9,8.5c0,4.9,3.2,8.5,7.9,8.5c4.1,0,6.1-2.4,7.2-4.4H180.9z"/>
<path d="M221.4,202.7h-10v-3.6h-0.1c-1.7,3.2-5.8,4.7-9.7,4.7c-10.6,0-16.7-8.3-16.7-17.8c0-10.9,7.9-17.8,16.7-17.8
	c5.5,0,8.5,2.6,9.7,4.7h0.1v-3.5h10V202.7z M203.1,194.5c6.2,0,8.3-5.3,8.3-8.5c0-4-2.8-8.5-8.4-8.5c-5.7,0-8.2,4.8-8.2,8.6
	C194.8,189.2,197.1,194.5,203.1,194.5z"/>
<path d="M228.6,169.4h9.4v3.5h0.1c0.8-1.6,2.6-4.7,8.3-4.7v10c-4.6,0.1-7.9,1.1-7.9,6.1v18.3h-10V169.4z"/>
<path d="M261.6,165.8h-10v-7.6h10V165.8z M261.6,202.7h-10v-33.3h10V202.7z"/>
<path d="M279.8,202.7h-10.4v-10.2h10.4V202.7z"/>
<path d="M287.6,169.4h9.3v3.5h0.1c0.8-1.4,2.9-4.7,9.2-4.7c2.9,0,7,1,9.6,5.9c2-3.2,5.5-5.9,10.6-5.9c2.3,0,6.1,0.5,8.8,3.4
	c3.1,3.3,3.6,5.5,3.6,12.9v18.2h-10V185c0-2.7,0-7.4-5.1-7.4c-5.5,0-5.5,5-5.5,6.9v18.2h-10v-18.1c0-1.8,0-7-5-7
	c-5.6,0-5.6,5.4-5.6,7.4v17.7h-10V169.4z"/>
<path d="M345.7,158.3h10V172c3.5-3.8,8.3-3.8,9.7-3.8c7,0,16.4,5,16.4,17.6c0,12-8.3,18-16.8,18c-4.7,0-8.3-2.3-9.5-4.7h-0.1v3.5
	h-9.5V158.3z M363.4,194.5c5.1,0,8.3-4.1,8.3-8.5c0-4.3-3.2-8.5-8.2-8.5c-5.3,0-8.3,4.3-8.3,8.4
	C355.3,190.5,358.5,194.5,363.4,194.5z"/>
<path d="M422.3,202.7h-10v-3.6h-0.1c-1.7,3.2-5.8,4.7-9.7,4.7c-10.6,0-16.7-8.3-16.7-17.8c0-10.9,7.9-17.8,16.7-17.8
	c5.5,0,8.5,2.6,9.7,4.7h0.1v-3.5h10V202.7z M404,194.5c6.2,0,8.3-5.3,8.3-8.5c0-4-2.8-8.5-8.4-8.5c-5.7,0-8.2,4.8-8.2,8.6
	C395.7,189.2,398,194.5,404,194.5z"/>
</svg>
