<svg id="Layer_1" data-name="Layer 1" xmlns="http://www.w3.org/2000/svg" viewBox="0 0 326 321.33"><defs><style>.cls-1{fill:#f5f4f5;}.cls-2{fill:#d3d3d3;}.cls-3{fill:#1d1d1b;}</style></defs><title>carimba</title><ellipse class="cls-1" cx="163" cy="160.67" rx="163" ry="160.67"/><rect class="cls-2" x="143.3" y="45.74" width="9.96" height="196"/><rect class="cls-2" x="290.66" y="106.18" width="9.96" height="173.93" transform="translate(-112.69 -56.92) rotate(3.84)"/><rect class="cls-2" x="312.12" y="124.75" width="9.96" height="156.6" transform="translate(-94.22 -80.55) rotate(8.17)"/><rect class="cls-2" x="329.22" y="137.67" width="9.96" height="143.93" transform="translate(-80.07 -97.54) rotate(11.02)"/><rect class="cls-2" x="248.63" y="105.67" width="9.96" height="173.93" transform="matrix(-1, 0.07, -0.07, -1, 393.26, 330.3)"/><rect class="cls-2" x="227.16" y="124.24" width="9.96" height="156.6" transform="translate(364.42 332.5) rotate(171.83)"/><rect class="cls-2" x="210.07" y="137.16" width="9.96" height="143.93" transform="translate(339.79 335.76) rotate(168.98)"/><rect class="cls-2" x="68.03" y="207.14" width="162.39" height="12.67"/><path class="cls-3" d="M180.92,190a17.88,17.88,0,0,1-35.28-4.08,17.82,17.82,0,0,1,35.22-3.72H170.79a7.46,7.46,0,0,0-7.2-4.68c-4.74-.24-7.92,3.66-7.92,8.46s3.18,8.46,7.92,8.46a7.65,7.65,0,0,0,7.2-4.44Z" transform="translate(-126.3 -37.53)"/><path class="cls-3" d="M221.36,202.67h-10v-3.6h-.12c-1.68,3.24-5.82,4.74-9.72,4.74-10.56,0-16.74-8.28-16.74-17.82,0-10.92,7.86-17.76,16.74-17.76,5.46,0,8.52,2.64,9.72,4.68h.12v-3.54h10Zm-18.3-8.16c6.24,0,8.34-5.28,8.34-8.52a8.19,8.19,0,0,0-8.4-8.46c-5.7,0-8.22,4.8-8.22,8.58C194.79,189.23,197.07,194.51,203.07,194.51Z" transform="translate(-126.3 -37.53)"/><path class="cls-3" d="M228.57,169.37h9.36v3.54H238c.84-1.62,2.58-4.68,8.34-4.68v10c-4.62.12-7.86,1.08-7.86,6.12v18.3h-10Z" transform="translate(-126.3 -37.53)"/><path class="cls-3" d="M261.56,165.83h-10v-7.56h10Zm0,36.84h-10v-33.3h10Z" transform="translate(-126.3 -37.53)"/><path class="cls-3" d="M279.8,202.67H269.42v-10.2H279.8Z" transform="translate(-126.3 -37.53)"/><path class="cls-3" d="M287.6,169.37h9.3v3.54H297c.78-1.38,2.94-4.68,9.18-4.68a10.4,10.4,0,0,1,9.6,5.94,12.66,12.66,0,0,1,19.32-2.58c3.12,3.3,3.6,5.52,3.6,12.9v18.18h-10V185c0-2.7,0-7.38-5.1-7.38-5.52,0-5.52,5-5.52,6.9v18.18h-10V184.55c0-1.8,0-7-5-7-5.64,0-5.64,5.4-5.64,7.38v17.7h-10Z" transform="translate(-126.3 -37.53)"/><path class="cls-3" d="M345.74,158.27h10V172a12.91,12.91,0,0,1,9.66-3.78c7,0,16.38,5,16.38,17.58,0,12-8.34,18-16.8,18-4.68,0-8.28-2.28-9.54-4.68h-.12v3.54h-9.54Zm17.7,36.24a8.49,8.49,0,0,0,.18-17,8.19,8.19,0,0,0-8.28,8.4C355.34,190.55,358.46,194.51,363.44,194.51Z" transform="translate(-126.3 -37.53)"/><path class="cls-3" d="M422.3,202.67h-10v-3.6h-.12c-1.68,3.24-5.82,4.74-9.72,4.74-10.56,0-16.74-8.28-16.74-17.82,0-10.92,7.86-17.76,16.74-17.76,5.46,0,8.52,2.64,9.72,4.68h.12v-3.54h10ZM404,194.51c6.24,0,8.34-5.28,8.34-8.52a8.19,8.19,0,0,0-8.4-8.46c-5.7,0-8.22,4.8-8.22,8.58C395.72,189.23,398,194.51,404,194.51Z" transform="translate(-126.3 -37.53)"/><path d="M143.77,321.24l-2-5.23h-6.38l-2,5.23h-2.74l6.74-17.76h2.33l6.74,17.76Zm-2.86-7.61-2.26-6.79h0l-2.28,6.79Z" transform="translate(-126.3 -37.53)"/><path d="M150.93,321.24h-2.5V303.48h2.5Z" transform="translate(-126.3 -37.53)"/><path d="M156.64,321.24h-2.5V303.48h2.5Z" transform="translate(-126.3 -37.53)"/><path d="M169.29,321.24h-2.5v-11H165v-2.28h1.8v-4.46h2.5v4.46h2.18v2.28h-2.18Z" transform="translate(-126.3 -37.53)"/><path d="M182.44,321.24V314c0-1,0-4.15-3.31-4.15-2.09,0-3.5,1.46-3.5,4.13v7.25h-2.5V303.48h2.5v5.88h0a4.32,4.32,0,0,1,3.72-1.78,5.4,5.4,0,0,1,4.7,2.38,6.48,6.48,0,0,1,.84,3.41v7.87Z" transform="translate(-126.3 -37.53)"/><path d="M189.9,315.67a4.51,4.51,0,0,0,4.37,3.62,4.25,4.25,0,0,0,3.79-2.23h2.5a6.78,6.78,0,0,1-6.38,4.51,6.94,6.94,0,0,1-6.77-7A6.79,6.79,0,1,1,201,314.4c0,.43,0,1.1-.07,1.27Zm8.59-1.92a4.32,4.32,0,0,0-8.59,0Z" transform="translate(-126.3 -37.53)"/><path d="M226.57,321.24v-15h-.07l-6,15H219l-6-15h0v15h-2.59V303.48h4.08l5.33,13.61,5.35-13.61h4.08v17.76Z" transform="translate(-126.3 -37.53)"/><path d="M234.37,315.67a4.51,4.51,0,0,0,4.37,3.62,4.25,4.25,0,0,0,3.79-2.23H245a6.78,6.78,0,0,1-6.38,4.51,6.94,6.94,0,0,1-6.77-7,6.79,6.79,0,1,1,13.59-.17c0,.43,0,1.1-.07,1.27Zm8.59-1.92a4.32,4.32,0,0,0-8.59,0Z" transform="translate(-126.3 -37.53)"/><path d="M258.93,321.24v-1.9h0a5.62,5.62,0,0,1-4.7,2.23,7,7,0,0,1,0-14,5.75,5.75,0,0,1,4.51,2h0v-6.1h2.5v17.76Zm-4.61-11.38a4.72,4.72,0,1,0,4.61,4.75A4.54,4.54,0,0,0,254.32,309.86Z" transform="translate(-126.3 -37.53)"/><path d="M266.94,306.41h-2.5v-2.93h2.5Zm0,14.83h-2.5v-13.3h2.5Z" transform="translate(-126.3 -37.53)"/><path d="M281.08,321.24v-2.06h0a5.09,5.09,0,0,1-4.51,2.4,7,7,0,1,1,0-14,5.27,5.27,0,0,1,4.51,2.23h0v-1.87h2.5v13.3Zm-4.56-11.38a4.72,4.72,0,1,0,4.61,4.75A4.54,4.54,0,0,0,276.52,309.86Z" transform="translate(-126.3 -37.53)"/><path d="M299.92,321.58a7.15,7.15,0,0,1-7.18-7.08,7.18,7.18,0,0,1,14.35,0A7.15,7.15,0,0,1,299.92,321.58Zm0-11.71a4.72,4.72,0,1,0,4.68,4.68A4.69,4.69,0,0,0,299.92,309.86Z" transform="translate(-126.3 -37.53)"/><path d="M318.92,321.24V314c0-1,0-4.15-3.31-4.15-2.09,0-3.5,1.46-3.5,4.13v7.25h-2.5v-13.3h2.33v1.42h0a4.72,4.72,0,0,1,3.89-1.78,5.4,5.4,0,0,1,4.7,2.38,6.47,6.47,0,0,1,.84,3.41v7.87Z" transform="translate(-126.3 -37.53)"/><path d="M334,321.24h-2.5v-11h-1.8v-2.28h1.8v-4.46H334v4.46h2.18v2.28H334Z" transform="translate(-126.3 -37.53)"/><path d="M347.2,321.24V314c0-1,0-4.15-3.31-4.15-2.09,0-3.5,1.46-3.5,4.13v7.25h-2.5V303.48h2.5v5.88h0a4.32,4.32,0,0,1,3.72-1.78,5.41,5.41,0,0,1,4.71,2.38,6.49,6.49,0,0,1,.84,3.41v7.87Z" transform="translate(-126.3 -37.53)"/><path d="M354.66,315.67A4.51,4.51,0,0,0,359,319.3a4.25,4.25,0,0,0,3.79-2.23h2.5a6.78,6.78,0,0,1-6.38,4.51,6.94,6.94,0,0,1-6.77-7,6.79,6.79,0,1,1,13.58-.17c0,.43,0,1.1-.07,1.27Zm8.59-1.92a4.32,4.32,0,0,0-8.59,0Z" transform="translate(-126.3 -37.53)"/><path d="M375.08,321.24V303.48h2.59v17.76Z" transform="translate(-126.3 -37.53)"/><path d="M390.35,321.24V314c0-1,0-4.15-3.31-4.15-2.09,0-3.5,1.46-3.5,4.13v7.25H381v-13.3h2.33v1.42h0a4.72,4.72,0,0,1,3.89-1.78A5.4,5.4,0,0,1,392,310a6.48,6.48,0,0,1,.84,3.41v7.87Z" transform="translate(-126.3 -37.53)"/><path d="M401.27,311.47a1.64,1.64,0,0,0-1.7-1.61,1.43,1.43,0,0,0-1.56,1.42c0,1.1,1,1.39,2.06,1.73s4,1.15,4,4.32a4.14,4.14,0,0,1-4.46,4.25,4.56,4.56,0,0,1-4.7-4.7h2.5c.1,1.49.86,2.42,2.26,2.42a1.76,1.76,0,0,0,1.92-1.82c0-1.18-1-1.58-2.33-2s-3.74-1.18-3.74-4a4,4,0,0,1,4.18-3.84,3.93,3.93,0,0,1,4.08,3.89Z" transform="translate(-126.3 -37.53)"/><path d="M408.71,306.41h-2.5v-2.93h2.5Zm0,14.83h-2.5v-13.3h2.5Z" transform="translate(-126.3 -37.53)"/><path d="M422.89,321.24v-1.9h0a5.62,5.62,0,0,1-4.71,2.23,7,7,0,0,1,0-14,5.75,5.75,0,0,1,4.51,2h0v-6.1h2.5v17.76Zm-4.61-11.38a4.72,4.72,0,1,0,4.61,4.75A4.54,4.54,0,0,0,418.28,309.86Z" transform="translate(-126.3 -37.53)"/><path d="M430.23,315.67a4.51,4.51,0,0,0,4.37,3.62,4.25,4.25,0,0,0,3.79-2.23h2.5a6.78,6.78,0,0,1-6.38,4.51,6.94,6.94,0,0,1-6.77-7,6.79,6.79,0,1,1,13.58-.17c0,.43,0,1.1-.07,1.27Zm8.59-1.92a4.32,4.32,0,0,0-8.59,0Z" transform="translate(-126.3 -37.53)"/></svg>