<svg id="Layer_1" data-name="Layer 1" xmlns="http://www.w3.org/2000/svg" viewBox="0 0 326 321.33"><defs><style>.cls-1{fill:#f5f4f5;}.cls-2{fill:#d3d3d3;}.cls-3{fill:#1d1d1b;}</style></defs><title>carimba_noslogan</title><ellipse class="cls-1" cx="163" cy="160.67" rx="163" ry="160.67"/><rect class="cls-2" x="143.3" y="45.74" width="9.96" height="196"/><rect class="cls-2" x="290.66" y="106.18" width="9.96" height="173.93" transform="translate(-112.69 -56.92) rotate(3.84)"/><rect class="cls-2" x="312.12" y="124.75" width="9.96" height="156.6" transform="translate(-94.22 -80.55) rotate(8.17)"/><rect class="cls-2" x="329.22" y="137.67" width="9.96" height="143.93" transform="translate(-80.07 -97.54) rotate(11.02)"/><rect class="cls-2" x="248.63" y="105.67" width="9.96" height="173.93" transform="matrix(-1, 0.07, -0.07, -1, 393.26, 330.3)"/><rect class="cls-2" x="227.16" y="124.24" width="9.96" height="156.6" transform="translate(364.42 332.5) rotate(171.83)"/><rect class="cls-2" x="210.07" y="137.16" width="9.96" height="143.93" transform="translate(339.79 335.76) rotate(168.98)"/><rect class="cls-2" x="68.03" y="207.14" width="162.39" height="12.67"/><path class="cls-3" d="M180.92,190a17.88,17.88,0,0,1-35.28-4.08,17.82,17.82,0,0,1,35.22-3.72H170.79a7.46,7.46,0,0,0-7.2-4.68c-4.74-.24-7.92,3.66-7.92,8.46s3.18,8.46,7.92,8.46a7.65,7.65,0,0,0,7.2-4.44Z" transform="translate(-126.3 -37.53)"/><path class="cls-3" d="M221.36,202.67h-10v-3.6h-.12c-1.68,3.24-5.82,4.74-9.72,4.74-10.56,0-16.74-8.28-16.74-17.82,0-10.92,7.86-17.76,16.74-17.76,5.46,0,8.52,2.64,9.72,4.68h.12v-3.54h10Zm-18.3-8.16c6.24,0,8.34-5.28,8.34-8.52a8.19,8.19,0,0,0-8.4-8.46c-5.7,0-8.22,4.8-8.22,8.58C194.79,189.23,197.07,194.51,203.07,194.51Z" transform="translate(-126.3 -37.53)"/><path class="cls-3" d="M228.57,169.37h9.36v3.54H238c.84-1.62,2.58-4.68,8.34-4.68v10c-4.62.12-7.86,1.08-7.86,6.12v18.3h-10Z" transform="translate(-126.3 -37.53)"/><path class="cls-3" d="M261.56,165.83h-10v-7.56h10Zm0,36.84h-10v-33.3h10Z" transform="translate(-126.3 -37.53)"/><path class="cls-3" d="M279.8,202.67H269.42v-10.2H279.8Z" transform="translate(-126.3 -37.53)"/><path class="cls-3" d="M287.6,169.37h9.3v3.54H297c.78-1.38,2.94-4.68,9.18-4.68a10.4,10.4,0,0,1,9.6,5.94,12.66,12.66,0,0,1,19.32-2.58c3.12,3.3,3.6,5.52,3.6,12.9v18.18h-10V185c0-2.7,0-7.38-5.1-7.38-5.52,0-5.52,5-5.52,6.9v18.18h-10V184.55c0-1.8,0-7-5-7-5.64,0-5.64,5.4-5.64,7.38v17.7h-10Z" transform="translate(-126.3 -37.53)"/><path class="cls-3" d="M345.74,158.27h10V172a12.91,12.91,0,0,1,9.66-3.78c7,0,16.38,5,16.38,17.58,0,12-8.34,18-16.8,18-4.68,0-8.28-2.28-9.54-4.68h-.12v3.54h-9.54Zm17.7,36.24a8.49,8.49,0,0,0,.18-17,8.19,8.19,0,0,0-8.28,8.4C355.34,190.55,358.46,194.51,363.44,194.51Z" transform="translate(-126.3 -37.53)"/><path class="cls-3" d="M422.3,202.67h-10v-3.6h-.12c-1.68,3.24-5.82,4.74-9.72,4.74-10.56,0-16.74-8.28-16.74-17.82,0-10.92,7.86-17.76,16.74-17.76,5.46,0,8.52,2.64,9.72,4.68h.12v-3.54h10ZM404,194.51c6.24,0,8.34-5.28,8.34-8.52a8.19,8.19,0,0,0-8.4-8.46c-5.7,0-8.22,4.8-8.22,8.58C395.72,189.23,398,194.51,404,194.51Z" transform="translate(-126.3 -37.53)"/></svg>