<?xml version="1.0" encoding="utf-8"?>
<!-- Generator: Adobe Illustrator 20.1.0, SVG Export Plug-In . SVG Version: 6.00 Build 0)  -->
<svg version="1.1" id="Capa_1" xmlns="http://www.w3.org/2000/svg" xmlns:xlink="http://www.w3.org/1999/xlink" x="0px" y="0px"
	 viewBox="0 0 490.2 490.2" style="enable-background:new 0 0 490.2 490.2;" xml:space="preserve">
<g>
	<path d="M469.1,265.9c11.5,0,20.9-9.4,20.9-20.9s-9.4-20.9-20.9-20.9h-59.4V195h59.4c11.5,0,20.9-9.4,20.9-20.9
		s-9.4-20.9-20.9-20.9h-59.4v-51.1c0-11.5-9.4-20.9-20.9-20.9h-52.1V20.9c0-11.5-9.4-20.9-20.9-20.9S295,9.4,295,20.9v60.5h-29.2
		V20.9c0-11.5-9.4-20.9-20.9-20.9S224,9.4,224,20.9v60.5h-28.9V20.9c0-11.5-9.4-20.9-20.9-20.9s-20.9,9.4-20.9,20.9v60.5h-49
		c-11.5,0-20.9,9.4-20.9,20.9v51.1H21c-11.5,0-20.9,9.4-20.9,20.9s9.4,20.9,20.9,20.9h62.6v29.2H21c-11.5,0-20.9,9.4-20.9,20.9
		c0,11.5,9.4,20.9,20.9,20.9h62.6V294H21c-11.5,0-20.9,9.4-20.9,20.9s9.4,20.9,20.9,20.9h62.6v51.1c0,11.5,9.4,20.9,20.9,20.9h49
		v61.5c0,11.5,9.4,20.9,20.9,20.9s20.9-9.4,20.9-20.9v-61.5h29.2v61.5c0,11.5,9.4,20.9,20.9,20.9s20.9-9.4,20.9-20.9v-61.5H295v61.5
		c0,11.5,9.4,20.9,20.9,20.9c10.4,0,19.8-9.4,20.9-20.9v-61.5h52.1c11.5,0,20.9-8.3,20.9-20.9v-51.1h59.4c11.5,0,20.9-9.4,20.9-20.9
		s-9.4-20.9-20.9-20.9h-59.4v-28.1H469.1z M368,367H124V123h244V367z"/>
</g>
<g>
	<path d="M152.7,235.5c0-22.6,10.5-35.7,27.5-35.7c18.1,0,27.7,15.4,27.7,33.2c0,3.3,0,3.7-1.1,3.7l-22.9,0.9c-1.1,0-2.2-1-2.2-2.5
		v-7.8c0-1.7-1-2.4-2-2.4c-1,0-2,0.9-2,2.2v38.6c0,1.2,0.9,2.1,2,2.1c1.2,0,2-1,2-2.2v-12.5c0-0.7,0.5-1.9,1.5-1.7l23.4,0.9
		c0.6,0,1,0.5,1,1c0,29.9-12.3,40.2-27.9,40.2c-17.2,0-26.9-15.5-26.9-33.2V235.5z"/>
	<path d="M212.1,202.1c0-1.2,0.6-2.1,1.7-2.1h28.9c5.7,0,24.1,4.1,24.1,27.5c0,11.5-10.3,22.9-22.2,22.9c-6.1,0-6.7,0-6.7,1.5v39.3
		c0,1-0.7,1.7-2.1,1.7h-21.7c-1.1,0-2-1-2-2.2V202.1z M237.9,234.5c0,0.5,0.4,1.4,1.2,1.4c1.9,0,2.6-1.6,2.6-4.1v-5.1
		c0-2-1-3.3-2.6-3.3c-0.4,0-0.6,0-0.9,0.1c-0.2,0.1-0.4,0.6-0.4,1V234.5z"/>
	<path d="M292.2,200c0.7,0,1.4,0.5,1.4,1.4v63c0,1.6,0.6,2.7,2.1,2.7c1.5,0,2.1-1.1,2.1-2.6v-63.2c0-0.6,0.6-1.2,1.4-1.2h21
		c0.6,0,1.4,0.4,1.4,1.2v66.5c0,13.1-9.4,25.3-25.8,25.3c-16.5,0-25.8-12.3-25.8-25.3v-66.3c0-0.9,0.5-1.4,1.2-1.4H292.2z"/>
</g>
</svg>
