<?xml version="1.0" encoding="utf-8"?>
<!-- Generator: Adobe Illustrator 20.1.0, SVG Export Plug-In . SVG Version: 6.00 Build 0)  -->
<svg version="1.1" id="Capa_1" xmlns="http://www.w3.org/2000/svg" xmlns:xlink="http://www.w3.org/1999/xlink" x="0px" y="0px"
	 viewBox="0 0 55 55" style="enable-background:new 0 0 55 55;" xml:space="preserve">
<style type="text/css">
	.st0{stroke:#000000;stroke-miterlimit:10;}
</style>
<path class="st0" d="M52.4,8.9C51.2,4.7,42.7,0.6,28,0.6S4.7,4.7,3.5,8.9C3.4,9.1,3.4,9.2,3.4,9.4v0.5v11.2v0.5v0.5v10.8v0.5v0.5
	v11.7c0,0.2,0,0.3,0.1,0.5c1.2,4.8,11.5,8.3,24.4,8.3s23.3-3.5,24.4-8.3c0.1-0.1,0.1-0.3,0.1-0.5V33.9v-0.5v-0.5V22.1v-0.5v-0.5V9.9
	V9.4C52.5,9.2,52.4,9.1,52.4,8.9z M50.4,33.9c0,0.1-0.1,0.2-0.1,0.4c0,0.1-0.1,0.2-0.1,0.3c-0.1,0.1-0.1,0.2-0.2,0.4
	C50,35,50,35.1,49.9,35.2c-0.1,0.1-0.2,0.3-0.4,0.4c-0.1,0.1-0.2,0.2-0.3,0.2c-0.2,0.1-0.3,0.3-0.5,0.4c-0.1,0.1-0.2,0.1-0.3,0.2
	c-0.2,0.2-0.5,0.3-0.7,0.5c-0.1,0-0.1,0.1-0.2,0.1c-0.3,0.2-0.6,0.3-0.9,0.5c0,0-0.1,0-0.1,0.1c-0.4,0.2-0.8,0.4-1.2,0.5l0,0
	c-2.2,0.9-5.1,1.7-8.4,2.2c0,0,0,0-0.1,0c-0.7,0.1-1.3,0.2-2,0.3c-0.1,0-0.2,0-0.3,0c-0.6,0.1-1.2,0.1-1.9,0.2c-0.3,0-0.6,0-0.9,0
	c-0.5,0-0.9,0.1-1.4,0.1c-0.8,0-1.6,0-2.3,0c-0.8,0-1.6,0-2.3,0c-0.5,0-1,0-1.4-0.1c-0.3,0-0.6,0-0.9,0c-0.6,0-1.2-0.1-1.9-0.2
	c-0.1,0-0.2,0-0.3,0c-0.7-0.1-1.4-0.2-2-0.3c0,0,0,0-0.1,0c-3.3-0.5-6.2-1.3-8.4-2.2l0,0c-0.4-0.2-0.8-0.3-1.2-0.5
	c0,0-0.1,0-0.1-0.1C9.4,37.3,9,37.2,8.8,37c-0.1,0-0.1-0.1-0.2-0.1c-0.3-0.2-0.5-0.3-0.7-0.5c-0.1-0.1-0.2-0.1-0.3-0.2
	c-0.2-0.1-0.4-0.3-0.5-0.4S7,35.6,6.9,35.6c-0.1-0.1-0.3-0.3-0.4-0.4C6.1,35,6,34.9,5.9,34.8c-0.1-0.1-0.2-0.2-0.2-0.4
	c-0.1-0.1-0.1-0.2-0.1-0.3S5.5,34,5.5,33.8c0-0.2-0.1-0.3-0.1-0.5c0-0.1,0-0.2,0-0.3c0-0.2,0-0.3,0-0.4v-7.2l0.1,0.1
	c0.2,0.2,0.4,0.4,0.7,0.6c3.6,2.7,11,4.9,21.8,4.9c10.7,0,18.1-2.2,21.8-4.9c0.3-0.2,0.6-0.4,0.8-0.7l0,0v7.2c0,0.1-0.1,0.3,0,0.4
	c0,0.1,0,0.2,0,0.3C50.5,33.6,50.4,33.7,50.4,33.9z M50.5,13.6v7.2c0,0.1-0.1,0.3,0,0.4c0,0.1,0,0.2,0,0.3c0,0.2,0,0.3-0.1,0.5
	c0,0.1-0.1,0.2-0.1,0.4c0,0.1-0.1,0.2-0.1,0.3c-0.1,0.1-0.1,0.2-0.2,0.4c-0.1,0.1-0.1,0.2-0.2,0.3c-0.1,0.1-0.2,0.3-0.4,0.4
	c-0.1,0.1-0.2,0.2-0.3,0.2c-0.2,0.1-0.3,0.3-0.5,0.4c-0.1,0.1-0.2,0.1-0.3,0.2c-0.2,0.2-0.5,0.3-0.7,0.5c-0.1,0-0.1,0.1-0.2,0.1
	c-0.3,0.2-0.6,0.3-0.9,0.5c0,0-0.1,0-0.1,0.1c-0.4,0.2-0.8,0.4-1.2,0.5l0,0c-2.2,0.9-5.1,1.7-8.4,2.1c0,0,0,0-0.1,0
	c-0.7,0.1-1.3,0.2-2,0.3c-0.1,0-0.2,0-0.3,0c-0.6,0.1-1.2,0.1-1.9,0.2c-0.3,0-0.6,0-0.9,0c-0.5,0-0.9,0.1-1.4,0.1
	c-0.8,0-1.6,0-2.3,0c-0.8,0-1.6,0-2.3,0c-0.5,0-1,0-1.4-0.1c-0.3,0-0.6,0-0.9,0c-0.6,0-1.2-0.1-1.9-0.2c-0.1,0-0.2,0-0.3,0
	c-0.7-0.1-1.4-0.2-2-0.3c0,0,0,0-0.1,0c-3.3-0.5-6.2-1.3-8.4-2.1l0,0c-0.4-0.2-0.8-0.3-1.2-0.5c0,0-0.1,0-0.1-0.1
	c-0.3-0.2-0.7-0.3-0.9-0.5c-0.1,0-0.1-0.1-0.2-0.1c-0.3-0.2-0.5-0.3-0.7-0.5c-0.1-0.1-0.2-0.1-0.3-0.2c-0.2-0.1-0.4-0.3-0.5-0.4
	c-0.1-0.1-0.2-0.2-0.3-0.2c-0.1-0.1-0.3-0.3-0.4-0.4c-0.4-0.1-0.5-0.2-0.6-0.3c-0.1-0.1-0.2-0.2-0.2-0.4c-0.1-0.1-0.1-0.2-0.1-0.3
	c0-0.1-0.1-0.2-0.1-0.4c0-0.2-0.1-0.3-0.1-0.5c0-0.1,0-0.2,0-0.3c0-0.2,0-0.3,0-0.4v-7.2c0.1,0.1,0.3,0.2,0.4,0.3
	C5.9,14,5.9,14,6,14.1c0.3,0.2,0.6,0.5,1,0.7c0.1,0,0.2,0.1,0.2,0.1c0.3,0.2,0.6,0.4,0.9,0.6c0.1,0.1,0.2,0.1,0.4,0.2
	c0.4,0.2,0.8,0.4,1.2,0.5c0.1,0,0.1,0.1,0.2,0.1c0.5,0.2,1,0.4,1.5,0.6c0.1,0.1,0.3,0.1,0.4,0.1c0.4,0.1,0.8,0.3,1.3,0.4
	c0.2,0,0.3,0.1,0.5,0.1c0.6,0.2,1.2,0.3,1.8,0.5c0.1,0,0.2,0,0.3,0.1c0.6,0.1,1.1,0.2,1.7,0.3c0.2,0,0.4,0.1,0.6,0.1
	c0.6,0.1,1.2,0.2,1.8,0.3c0.2,0,0.3,0,0.5,0.1c0.7,0.1,1.5,0.2,2.2,0.2c0.2,0,0.4,0,0.6,0c0.6,0,1.3,0.1,2,0.1c0.2,0,0.5,0,0.7,0
	c0.9,0,1.7,0,2.6,0s1.8,0,2.6,0c0.2,0,0.5,0,0.7,0c0.7,0,1.3-0.1,2-0.1c0.2,0,0.4,0,0.6,0c0.8-0.1,1.6-0.1,2.2-0.2
	c0.2,0,0.3,0,0.5-0.1c0.6-0.1,1.2-0.2,1.8-0.3c0.2,0,0.4-0.1,0.6-0.1c0.6-0.1,1.2-0.2,1.7-0.3c0.1,0,0.2,0,0.3-0.1
	c0.6-0.1,1.2-0.3,1.8-0.5c0.2,0,0.3-0.1,0.5-0.1c0.4-0.1,0.9-0.3,1.3-0.4c0.1,0,0.3-0.1,0.4-0.1c0.5-0.2,1-0.4,1.5-0.6
	c0.1,0,0.1-0.1,0.2-0.1c0.4-0.2,0.8-0.4,1.2-0.5c0.1-0.1,0.2-0.1,0.4-0.2c0.3-0.2,0.6-0.4,0.9-0.5c0.1,0,0.2-0.1,0.2-0.1
	c0.4-0.2,0.7-0.5,1-0.7c0.1-0.1,0.1-0.1,0.2-0.2C50.3,13.8,50.4,13.7,50.5,13.6z M28,2.6c13.3,0,22.6,3.9,22.6,7.3
	s-9.3,7.3-22.6,7.3S5.4,13.3,5.4,9.9S14.7,2.6,28,2.6z M50.5,45.3L50.5,45.3c-0.6,3.5-9.8,7.1-22.6,7.1s-22-3.6-22.6-7v-0.1v-8.2
	l0.1,0.1c0.2,0.2,0.4,0.4,0.7,0.6c3.6,2.7,11,4.9,21.8,4.9c10.7,0,18.1-2.2,21.8-4.9c0.3-0.2,0.6-0.4,0.8-0.7l0,0
	C50.5,37.1,50.5,45.3,50.5,45.3z"/>
</svg>
