<?xml version="1.0" encoding="utf-8"?>
<!-- Generator: Adobe Illustrator 20.1.0, SVG Export Plug-In . SVG Version: 6.00 Build 0)  -->
<svg version="1.1" id="Capa_1" xmlns="http://www.w3.org/2000/svg" xmlns:xlink="http://www.w3.org/1999/xlink" x="0px" y="0px"
	 viewBox="0 0 55 55" style="enable-background:new 0 0 55 55;" xml:space="preserve">
<style type="text/css">
	.st0{stroke:#000000;stroke-miterlimit:10;}
</style>
<path class="st0" d="M52.4,8.5C51.2,4.2,42.5,0,27.4,0S3.6,4.2,2.4,8.5C2.3,8.7,2.3,8.8,2.3,9v0.5V21v0.5V22v11v0.5V34v12
	c0,0.2,0,0.3,0.1,0.5c1.2,4.9,11.8,8.5,25,8.5s23.8-3.6,25-8.5c0.1-0.1,0.1-0.3,0.1-0.5V34v-0.5V33V22v-0.5V21V9.5V9
	C52.5,8.8,52.4,8.7,52.4,8.5z M50.4,34c0,0.1-0.1,0.2-0.1,0.4c0,0.1-0.1,0.2-0.1,0.3c-0.1,0.1-0.1,0.2-0.2,0.4
	c-0.1,0.1-0.1,0.2-0.2,0.3c-0.1,0.1-0.2,0.3-0.4,0.4c-0.1,0.1-0.2,0.2-0.3,0.2c-0.2,0.1-0.3,0.3-0.5,0.4c-0.1,0.1-0.2,0.1-0.3,0.2
	c-0.2,0.2-0.5,0.3-0.7,0.5c-0.1,0-0.1,0.1-0.2,0.1c-0.3,0.2-0.6,0.3-0.9,0.5c0,0-0.1,0-0.1,0.1c-0.4,0.2-0.8,0.4-1.2,0.5l0,0
	c-2.3,0.9-5.2,1.7-8.6,2.2c0,0,0,0-0.1,0c-0.7,0.1-1.3,0.2-2,0.3c-0.1,0-0.2,0-0.3,0c-0.6,0.1-1.2,0.1-1.9,0.2c-0.3,0-0.6,0-0.9,0
	c-0.5,0-0.9,0.1-1.4,0.1c-0.8,0-1.6,0-2.4,0s-1.6,0-2.4,0c-0.5,0-1,0-1.4-0.1c-0.3,0-0.6,0-0.9,0c-0.6,0-1.2-0.1-1.9-0.2
	c-0.1,0-0.2,0-0.3,0c-0.7-0.1-1.4-0.2-2-0.3c0,0,0,0-0.1,0c-3.4-0.5-6.3-1.3-8.6-2.2l0,0c-0.4-0.2-0.8-0.3-1.2-0.5
	c0,0-0.1,0-0.1-0.1c-0.3-0.2-0.7-0.3-0.9-0.5c-0.1,0-0.1-0.1-0.2-0.1c-0.3-0.2-0.5-0.3-0.7-0.5c-0.1-0.1-0.2-0.1-0.3-0.2
	c-0.2-0.1-0.4-0.3-0.5-0.4c-0.1-0.1-0.2-0.2-0.3-0.2c-0.1-0.1-0.3-0.3-0.4-0.4C5,35.2,4.9,35.1,4.8,35s-0.2-0.2-0.2-0.4
	c-0.1-0.1-0.1-0.2-0.1-0.3s-0.1-0.2-0.1-0.4s-0.1-0.3-0.1-0.5c0-0.1,0-0.2,0-0.3c0-0.2,0-0.3,0-0.4v-7.4l0.1,0.1
	c0.2,0.2,0.4,0.4,0.7,0.6c3.7,2.8,11.3,5,22.3,5c10.9,0,18.5-2.2,22.3-5c0.3-0.2,0.6-0.4,0.8-0.7l0,0v7.4c0,0.1-0.1,0.3,0,0.4
	c0,0.1,0,0.2,0,0.3C50.5,33.7,50.4,33.8,50.4,34z M50.5,13.3v7.4c0,0.1-0.1,0.3,0,0.4c0,0.1,0,0.2,0,0.3c0,0.2,0,0.3-0.1,0.5
	c0,0.1-0.1,0.2-0.1,0.4c0,0.1-0.1,0.2-0.1,0.3c-0.1,0.1-0.1,0.2-0.2,0.4c-0.1,0.1-0.1,0.2-0.2,0.3c-0.1,0.1-0.2,0.3-0.4,0.4
	c-0.1,0.1-0.2,0.2-0.3,0.2c-0.2,0.1-0.3,0.3-0.5,0.4c-0.1,0.1-0.2,0.1-0.3,0.2c-0.2,0.2-0.5,0.3-0.7,0.5c-0.1,0-0.1,0.1-0.2,0.1
	c-0.3,0.2-0.6,0.3-0.9,0.5c0,0-0.1,0-0.1,0.1c-0.4,0.2-0.8,0.4-1.2,0.5l0,0c-2.3,0.9-5.2,1.7-8.6,2.2c0,0,0,0-0.1,0
	c-0.7,0.1-1.3,0.2-2,0.3c-0.1,0-0.2,0-0.3,0c-0.6,0.1-1.2,0.1-1.9,0.2c-0.3,0-0.6,0-0.9,0c-0.5,0-0.9,0.1-1.4,0.1
	c-0.8,0-1.6,0-2.4,0s-1.6,0-2.4,0c-0.5,0-1,0-1.4-0.1c-0.3,0-0.6,0-0.9,0c-0.6,0-1.2-0.1-1.9-0.2c-0.1,0-0.2,0-0.3,0
	c-0.7-0.1-1.4-0.2-2-0.3c0,0,0,0-0.1,0c-3.4-0.5-6.3-1.3-8.6-2.2l0,0c-0.4-0.2-0.8-0.3-1.2-0.5c0,0-0.1,0-0.1-0.1
	c-0.3-0.2-0.7-0.3-0.9-0.5c-0.1,0-0.1-0.1-0.2-0.1c-0.3-0.2-0.5-0.3-0.7-0.5c-0.1-0.1-0.2-0.1-0.3-0.2c-0.2-0.1-0.4-0.3-0.5-0.4
	s-0.2-0.2-0.3-0.2c-0.1-0.1-0.3-0.3-0.4-0.4C5,23.2,4.9,23.1,4.8,23s-0.2-0.2-0.2-0.4c-0.1-0.1-0.1-0.2-0.1-0.3
	c0-0.1-0.1-0.2-0.1-0.4c0-0.2-0.1-0.3-0.1-0.5c0-0.1,0-0.2,0-0.3c0-0.2,0-0.3,0-0.4v-7.4c0.1,0.1,0.3,0.2,0.4,0.3s0.1,0.1,0.2,0.2
	c0.3,0.2,0.6,0.5,1,0.7c0.1,0,0.2,0.1,0.2,0.1C6.4,14.8,6.7,15,7,15.2c0.1,0.1,0.2,0.1,0.4,0.2c0.4,0.2,0.8,0.4,1.2,0.5
	c0.1,0,0.1,0.1,0.2,0.1c0.5,0.2,1,0.4,1.5,0.6c0.1,0.1,0.3,0.1,0.4,0.1c0.4,0.1,0.8,0.3,1.3,0.4c0.2,0,0.3,0.1,0.5,0.1
	c0.6,0.2,1.2,0.3,1.8,0.5c0.1,0,0.2,0,0.3,0.1c0.6,0.1,1.1,0.2,1.7,0.3c0.2,0,0.4,0.1,0.6,0.1c0.6,0.1,1.2,0.2,1.8,0.3
	c0.2,0,0.3,0,0.5,0.1c0.7,0.1,1.5,0.2,2.3,0.2c0.2,0,0.4,0,0.6,0c0.6,0,1.3,0.1,2,0.1c0.2,0,0.5,0,0.7,0c0.9,0,1.7,0,2.7,0
	s1.8,0,2.7,0c0.2,0,0.5,0,0.7,0c0.7,0,1.3-0.1,2-0.1c0.2,0,0.4,0,0.6,0c0.8-0.1,1.6-0.1,2.3-0.2c0.2,0,0.3,0,0.5-0.1
	c0.6-0.1,1.2-0.2,1.8-0.3c0.2,0,0.4-0.1,0.6-0.1c0.6-0.1,1.2-0.2,1.7-0.3c0.1,0,0.2,0,0.3-0.1c0.6-0.1,1.2-0.3,1.8-0.5
	c0.2,0,0.3-0.1,0.5-0.1c0.4-0.1,0.9-0.3,1.3-0.4c0.1,0,0.3-0.1,0.4-0.1c0.5-0.2,1-0.4,1.5-0.6c0.1,0,0.1-0.1,0.2-0.1
	c0.4-0.2,0.8-0.4,1.2-0.5c0.1-0.1,0.2-0.1,0.4-0.2c0.3-0.2,0.6-0.4,0.9-0.5c0.1,0,0.2-0.1,0.2-0.1c0.4-0.2,0.7-0.5,1-0.7
	c0.1-0.1,0.1-0.1,0.2-0.2C50.2,13.5,50.4,13.4,50.5,13.3z M27.4,2C41,2,50.5,6,50.5,9.5S41,17,27.4,17S4.3,13,4.3,9.5S13.8,2,27.4,2
	z M50.5,45.7L50.5,45.7c-0.6,3.6-10,7.3-23.1,7.3S4.9,49.3,4.3,45.8v-0.1v-8.4l0.1,0.1c0.2,0.2,0.4,0.4,0.7,0.6
	c3.7,2.8,11.3,5,22.3,5c10.9,0,18.5-2.2,22.3-5c0.3-0.2,0.6-0.4,0.8-0.7l0,0C50.5,37.3,50.5,45.7,50.5,45.7z"/>
</svg>
