<?xml version="1.0" encoding="utf-8"?>
<!-- Generator: Adobe Illustrator 20.1.0, SVG Export Plug-In . SVG Version: 6.00 Build 0)  -->
<svg version="1.1" id="Layer_1" xmlns="http://www.w3.org/2000/svg" xmlns:xlink="http://www.w3.org/1999/xlink" x="0px" y="0px"
	 viewBox="0 0 503.6 503.6" style="enable-background:new 0 0 503.6 503.6;" xml:space="preserve">
<g>
	<g>
		<path d="M277,503.6V335.7h16.8c3.7,0,6.9-2.4,8-5.9l20.6-67c0-0.1,0-0.2,0.1-0.2l12.9-41.9c0.2-0.8,0.4-1.6,0.4-2.5V109.1
			c0-4.6-3.8-8.4-8.4-8.4V16.8c0-4.6-3.8-8.4-8.4-8.4h-25.2c0-4.6-3.8-8.4-8.4-8.4h-67.1c-4.6,0-8.4,3.8-8.4,8.4h-25.2
			c-4.6,0-8.4,3.8-8.4,8.4v83.9c-4.6,0-8.4,3.8-8.4,8.4v109.1c0,0.8,0.1,1.7,0.4,2.5l2.6,8.4c0,0,0,0.1,0,0.1l10.3,33.4
			c0,0.1,0,0.1,0.1,0.2l10.3,33.5l0,0l10.3,33.5c1.1,3.5,4.3,5.9,8,5.9h16.8v167.9 M235,503.6C235,503.6,235,503.6,235,503.6l33.6,0
			c0,0,0,0,0,0 M310.6,25.2v75.5h-16.8H277V83.9h8.4c4.6,0,8.4-3.8,8.4-8.4V25.2H310.6z M235,117.5h33.6h15.7
			c-3.7,14.5-16.9,25.2-32.5,25.2S223,132,219.3,117.5H235z M277,16.8v50.4h-8.4c-4.6,0-8.4,3.8-8.4,8.4v25.2h-16.8V75.5
			c0-4.6-3.8-8.4-8.4-8.4h-8.4V16.8H277z M193.1,25.2h16.8v50.4c0,4.6,3.8,8.4,8.4,8.4h8.4v16.8h-16.8h-16.8V25.2z M210.9,302.2
			h15.7c4.6,0,8.4-3.8,8.4-8.4s-3.8-8.4-8.4-8.4h-20.9l-5.2-16.8h26.1c4.6,0,8.4-3.8,8.4-8.4c0-4.6-3.8-8.4-8.4-8.4h-31.2l-5.2-16.8
			h36.4c4.6,0,8.4-3.8,8.4-8.4s-3.8-8.4-8.4-8.4H185l-0.4-1.3v-15.5h42c4.6,0,8.4-3.8,8.4-8.4c0-4.6-3.8-8.4-8.4-8.4h-42v-67.1h17.5
			c4,23.8,24.7,42,49.7,42s45.7-18.1,49.7-42H319v67.1h-42c-4.6,0-8.4,3.8-8.4,8.4c0,4.6,3.8,8.4,8.4,8.4h42V217l-0.4,1.3H277
			c-4.6,0-8.4,3.8-8.4,8.4s3.8,8.4,8.4,8.4h36.4l-5.2,16.8H277c-4.6,0-8.4,3.8-8.4,8.4c0,4.6,3.8,8.4,8.4,8.4h26.1l-5.2,16.8H277
			c-4.6,0-8.4,3.8-8.4,8.4s3.8,8.4,8.4,8.4h15.8l-5.2,16.8H216L210.9,302.2z M243.4,335.7h16.8v167.9h-16.8V335.7z"/>
	</g>
</g>
</svg>
