<?xml version="1.0" encoding="utf-8"?>
<!-- Generator: Adobe Illustrator 20.1.0, SVG Export Plug-In . SVG Version: 6.00 Build 0)  -->
<svg version="1.1" id="Layer_1" xmlns="http://www.w3.org/2000/svg" xmlns:xlink="http://www.w3.org/1999/xlink" x="0px" y="0px"
	 viewBox="0 0 512 512" style="enable-background:new 0 0 512 512;" xml:space="preserve">
<style type="text/css">
	.st0{stroke:#000000;stroke-width:3;stroke-miterlimit:10;}
</style>
<g>
	<g>
		<g>
			<path class="st0" d="M486.4,68.3H25.6C11.5,68.3,0,79.8,0,94.2V422c0,14.3,11.5,25.9,25.6,25.9h460.8c14.1,0,25.6-11.6,25.6-25.9
				V94.2C512,79.8,500.5,68.3,486.4,68.3z M494.9,421.9c0,4.8-3.8,8.6-8.5,8.6H25.6c-4.7,0-8.5-3.8-8.5-8.6V94.2
				c0-4.8,3.8-8.6,8.5-8.6h460.8c4.7,0,8.5,3.8,8.5,8.6V421.9L494.9,421.9z"/>
			<path class="st0" d="M426.7,128.7H85.3c-4.7,0-8.5,3.8-8.5,8.6v163.9c0,4.8,3.8,8.6,8.5,8.6H128v34.5c0,4.8,3.8,8.6,8.5,8.6h51.2
				v25.9c0,4.8,3.8,8.6,8.5,8.6h119.5c4.7,0,8.5-3.8,8.5-8.6v-25.9h51.2c4.7,0,8.5-3.8,8.5-8.6v-34.5h42.7c4.7,0,8.5-3.8,8.5-8.6
				V137.2C435.2,132.5,431.4,128.7,426.7,128.7z M418.1,292.5h-42.7c-4.7,0-8.5,3.8-8.5,8.6v34.5h-51.2c-4.7,0-8.5,3.8-8.5,8.6v25.9
				H204.8v-25.9c0-4.8-3.8-8.6-8.5-8.6h-51.2v-34.5c0-4.8-3.8-8.6-8.5-8.6H93.9V145.9H111v17.3c0,4.8,3.8,8.6,8.5,8.6
				s8.5-3.8,8.5-8.6v-17.3h17.1v17.3c0,4.8,3.8,8.6,8.5,8.6s8.5-3.8,8.5-8.6v-17.3h17.1v17.3c0,4.8,3.8,8.6,8.5,8.6s8.5-3.8,8.5-8.6
				v-17.3h17.1v17.3c0,4.8,3.8,8.6,8.5,8.6s8.5-3.8,8.5-8.6v-17.3h17.1v17.3c0,4.8,3.8,8.6,8.5,8.6c4.7,0,8.5-3.8,8.5-8.6v-17.3
				h17.1v17.3c0,4.8,3.8,8.6,8.5,8.6s8.5-3.8,8.5-8.6v-17.3h17.1v17.3c0,4.8,3.8,8.6,8.5,8.6s8.5-3.8,8.5-8.6v-17.3h17.1v17.3
				c0,4.8,3.8,8.6,8.5,8.6s8.5-3.8,8.5-8.6v-17.3H384v17.3c0,4.8,3.8,8.6,8.5,8.6s8.5-3.8,8.5-8.6v-17.3h17.1V292.5L418.1,292.5z"/>
		</g>
	</g>
</g>
</svg>
