<?xml version="1.0" encoding="utf-8"?>
<!-- Generator: Adobe Illustrator 20.1.0, SVG Export Plug-In . SVG Version: 6.00 Build 0)  -->
<svg version="1.1" id="Capa_1" xmlns="http://www.w3.org/2000/svg" xmlns:xlink="http://www.w3.org/1999/xlink" x="0px" y="0px"
	 viewBox="0 0 262.3 262.3" style="enable-background:new 0 0 262.3 262.3;" xml:space="preserve">
<path d="M259.8,84.4H2.5c-1.4,0-2.5,1.1-2.5,2.5v24.5c0,1.4,1.1,2.5,2.5,2.5h10.8c3,0,5.5,2.5,5.5,5.5s-2.5,5.5-5.5,5.5H2.5
	c-1.4,0-2.5,1.1-2.5,2.5v9.5c0,1.4,1.1,2.5,2.5,2.5h10.8c3,0,5.5,2.5,5.5,5.5s-2.5,5.5-5.5,5.5H2.5c-1.4,0-2.5,1.1-2.5,2.5v12
	c0,1.4,1.1,2.5,2.5,2.5v10.6h122.8v-10.6H137v10.6h122.8v-10.6c1.4,0,2.5-1.1,2.5-2.5v-12c0-1.4-1.1-2.5-2.5-2.5H249
	c-3,0-5.5-2.5-5.5-5.5s2.5-5.5,5.5-5.5h10.8c1.4,0,2.5-1.1,2.5-2.5v-9.5c0-1.4-1.1-2.5-2.5-2.5H249c-3,0-5.5-2.5-5.5-5.5
	s2.5-5.5,5.5-5.5h10.8c1.4,0,2.5-1.1,2.5-2.5V86.9C262.3,85.5,261.2,84.4,259.8,84.4z M18,173.9h-6.1v-9H18V173.9z M244.3,164.9h6.1
	v9h-6.1V164.9z M30.2,173.9h-6.1v-9h6.1V173.9z M42.5,173.9h-6.1v-9h6.1V173.9z M54.7,173.9h-6.1v-9h6.1V173.9z M67,173.9h-6.1v-9
	H67V173.9z M79.2,173.9h-6.1v-9h6.1V173.9z M91.5,173.9h-6.1v-9h6.1V173.9z M103.7,173.9h-6.1v-9h6.1V173.9z M116,173.9h-6.1v-9h6.1
	V173.9z M36.9,145.5v-42.9h188.4v42.9H36.9z M152.5,173.9h-6.1v-9h6.1V173.9z M164.7,173.9h-6.1v-9h6.1V173.9z M177,173.9h-6.1v-9
	h6.1V173.9z M189.2,173.9h-6.1v-9h6.1V173.9z M201.5,173.9h-6.1v-9h6.1V173.9z M213.7,173.9h-6.1v-9h6.1V173.9z M226,173.9h-6.1v-9
	h6.1V173.9z M238.2,173.9h-6.1v-9h6.1V173.9z"/>
</svg>
