<?xml version="1.0" encoding="utf-8"?>
<!-- Generator: Adobe Illustrator 20.1.0, SVG Export Plug-In . SVG Version: 6.00 Build 0)  -->
<svg version="1.1" id="Capa_1" xmlns="http://www.w3.org/2000/svg" xmlns:xlink="http://www.w3.org/1999/xlink" x="0px" y="0px"
	 viewBox="0 0 60 60" style="enable-background:new 0 0 60 60;" xml:space="preserve">
<style type="text/css">
	.st0{fill:none;stroke:#000000;stroke-width:2.5;stroke-miterlimit:10;}
</style>
<g>
	<path d="M7.5,34.5c2.5,0,4.5-2,4.5-4.5s-2-4.5-4.5-4.5S3,27.5,3,30S5,34.5,7.5,34.5z M7.5,27.5c1.4,0,2.5,1.1,2.5,2.5
		s-1.1,2.5-2.5,2.5S5,31.4,5,30S6.1,27.5,7.5,27.5z"/>
	<circle cx="52" cy="27.5" r="1"/>
	<circle cx="48" cy="27.5" r="1"/>
	<circle cx="52" cy="31.5" r="1"/>
	<circle cx="48" cy="31.5" r="1"/>
	<circle cx="44" cy="27.5" r="1"/>
	<circle cx="44" cy="31.5" r="1"/>
	<circle cx="40" cy="27.5" r="1"/>
	<circle cx="40" cy="31.5" r="1"/>
	<circle cx="36" cy="27.5" r="1"/>
	<circle cx="36" cy="31.5" r="1"/>
</g>
<circle cx="32" cy="27.5" r="1"/>
<circle cx="28" cy="27.5" r="1"/>
<circle cx="32" cy="31.5" r="1"/>
<circle cx="28" cy="31.5" r="1"/>
<circle cx="24" cy="27.5" r="1"/>
<circle cx="24" cy="31.5" r="1"/>
<circle cx="20" cy="27.5" r="1"/>
<circle cx="20" cy="31.5" r="1"/>
<circle cx="16" cy="27.5" r="1"/>
<circle cx="16" cy="31.5" r="1"/>
<path class="st0" d="M56.8,38.8H3.2c-1.1,0-2-0.9-2-2V23.3c0-1.1,0.9-2,2-2h53.6c1.1,0,2,0.9,2,2v13.6
	C58.8,37.9,57.9,38.8,56.8,38.8z"/>
</svg>
