<?xml version="1.0" encoding="utf-8"?>
<!-- Generator: Adobe Illustrator 20.1.0, SVG Export Plug-In . SVG Version: 6.00 Build 0)  -->
<svg version="1.1" id="Layer_1" xmlns="http://www.w3.org/2000/svg" xmlns:xlink="http://www.w3.org/1999/xlink" x="0px" y="0px"
	 viewBox="0 0 453 453" style="enable-background:new 0 0 453 453;" xml:space="preserve">
<g>
	<g>
		<path d="M420.1,110.2h-140l49.7-81.6c4.3-7.1,2.1-16.3-5-20.6c-7.1-4.3-16.3-2.1-20.6,5L245,110.2H208L148.8,13
			c-4.3-7.1-13.5-9.3-20.6-5c-7.1,4.3-9.3,13.5-5,20.6l49.7,81.6h-140C14.7,110.2,0,124.9,0,143.1v271.3c0,18.1,14.7,32.9,32.9,32.9
			h387.3c18.1,0,32.9-14.7,32.9-32.9V143.1C453,124.9,438.3,110.2,420.1,110.2z M317.7,374.9c0,9.9-8,17.9-17.9,17.9H71.2
			c-9.9,0-17.9-8-17.9-17.9V182.5c0-9.9,8-17.9,17.9-17.9h228.6c9.9,0,17.9,8,17.9,17.9V374.9z M383.8,369.2c-17.1,0-31-13.9-31-31
			c0-17.1,13.9-31,31-31s31,13.9,31,31S400.9,369.2,383.8,369.2z M383.8,250.2c-17.1,0-31-13.9-31-31s13.9-31,31-31s31,13.9,31,31
			S400.9,250.2,383.8,250.2z"/>
	</g>
</g>
</svg>
